<svg width="108" height="100" viewBox="0 0 108 100" fill="none" xmlns="http://www.w3.org/2000/svg">
<path d="M79.82 74.5983C75.0379 74.5983 70.23 73.6984 65.4865 71.9116C65.0751 71.7573 64.7795 71.4102 64.6766 70.986C64.5866 70.5618 64.7152 70.1118 65.0237 69.8033L71.1171 63.71C74.6265 60.2005 74.845 54.5057 71.6184 50.7392C71.3356 50.4049 71.2327 49.9422 71.3613 49.5308C71.4898 49.1194 71.8241 48.7852 72.2483 48.6695C74.9222 47.9368 77.7374 47.8596 80.6427 48.4124C82.7252 48.8109 84.8335 49.5436 86.9803 50.5978C85.4248 46.4198 84.255 39.041 85.5148 26.1473C85.5662 25.5945 85.9647 25.1446 86.5046 25.0161L94.3848 23.1649C94.8605 23.0492 95.3618 23.2164 95.6703 23.602C95.8246 23.782 99.4626 28.2427 102.754 35.3516C104.682 39.5295 106.096 43.7588 106.931 47.9239C107.986 53.1559 108.153 58.2851 107.42 63.1958C107.381 63.4657 107.253 63.7228 107.06 63.9157C106.88 64.0956 102.625 68.2736 95.3747 71.3716C91.1068 73.1971 86.6846 74.264 82.2367 74.5469C81.4269 74.5726 80.617 74.5983 79.82 74.5983ZM68.3018 70.1761C77.0561 73.0042 85.7847 72.6186 94.2691 69.032C100.054 66.5767 103.872 63.3243 104.939 62.3602C106.353 52.1018 103.293 42.6533 100.452 36.4957C97.9843 31.148 95.259 27.3043 94.1791 25.8645L88.0087 27.3171C86.1704 47.6796 90.6954 52.5903 91.6338 53.3873C92.1609 53.8244 92.2509 54.6086 91.8267 55.1485C91.4024 55.6884 90.6311 55.8169 90.0655 55.4184C84.6663 51.6519 79.5371 50.0836 74.7936 50.7649C77.5575 55.4441 76.889 61.5889 72.9425 65.5354L68.3018 70.1761Z" fill="#07CEB9"/>
<path d="M86.7979 27.5485C86.7208 27.5485 86.6308 27.5357 86.5537 27.5228C84.2269 27.0729 83.6227 24.6947 83.2114 23.1135C83.0957 22.6764 82.9414 22.0594 82.8 21.7509C81.2188 22.2394 79.8176 21.8409 78.9306 20.6453C77.5165 18.7299 77.8251 15.1433 79.0334 13.4465C81.553 9.9113 89.3432 7.91875 93.3283 9.01144C96.6707 9.93701 97.262 13.2665 97.8919 16.8016C97.9305 17.0459 97.9819 17.303 98.0333 17.5601C98.8432 21.9951 95.7194 25.1703 95.5908 25.2989C95.4237 25.466 95.2052 25.5817 94.9738 25.646L87.0936 27.51C87.0036 27.5357 86.9008 27.5485 86.7979 27.5485ZM82.9671 19.1284C83.417 19.1284 83.7641 19.257 84.0212 19.3855C85.0753 19.964 85.4096 21.2367 85.7181 22.4708C86.0395 23.7177 86.3094 24.6433 86.8494 24.9261L93.9839 23.2421C94.5367 22.5607 95.9508 20.5296 95.5009 18.0229C95.4494 17.7658 95.4109 17.5087 95.3594 17.2644C94.7424 13.7935 94.3439 11.9681 92.647 11.4925C89.6518 10.6698 82.9543 12.3666 81.1288 14.9377C80.5118 15.8118 80.3318 18.2029 81.0003 19.1156C81.116 19.2698 81.3088 19.5398 82.1058 19.2698C82.4143 19.1798 82.71 19.1284 82.9671 19.1284Z" fill="#07CEB9"/>
<path d="M90.8082 18.98L89.9649 16.5512L82.0833 19.2877L82.9266 21.7165L90.8082 18.98Z" fill="#07CEB9"/>
<path d="M28.0393 74.5983C27.2294 74.5983 26.4324 74.5726 25.6354 74.5211C21.1746 74.2383 16.7525 73.1714 12.4974 71.3459C5.24715 68.2478 0.992101 64.0699 0.812129 63.89C0.619303 63.6971 0.490751 63.44 0.452186 63.1701C-0.280556 58.2723 -0.126294 53.1302 0.940681 47.8982C1.77626 43.7331 3.19033 39.5038 5.1186 35.3259C8.40951 28.217 12.0475 23.7691 12.2018 23.5763C12.5103 23.2035 13.0116 23.0235 13.4873 23.1392L21.3675 24.9904C21.9074 25.1189 22.293 25.5688 22.3573 26.1216C23.6171 39.0153 22.4473 46.3941 20.8918 50.5721C23.0258 49.5179 25.1469 48.7852 27.2294 48.3867C30.1218 47.8339 32.9499 47.911 35.6238 48.6438C36.048 48.7595 36.3822 49.0809 36.5108 49.5051C36.6394 49.9293 36.5494 50.3792 36.2537 50.7135C33.0271 54.48 33.2456 60.1877 36.755 63.6843L42.8484 69.7776C43.1569 70.0861 43.2854 70.5361 43.1955 70.9603C43.1055 71.3845 42.797 71.7444 42.3856 71.8858C37.6292 73.6984 32.8214 74.5983 28.0393 74.5983ZM2.92037 62.3602C3.98734 63.3243 7.81817 66.5767 13.5901 69.032C22.0745 72.6314 30.8031 73.0171 39.5575 70.1761L34.9168 65.5354C30.9702 61.5889 30.3018 55.4441 33.0656 50.7649C28.3092 50.0836 23.18 51.639 17.7937 55.4184C17.2281 55.8169 16.4568 55.6884 16.0326 55.1485C15.6084 54.6086 15.6984 53.8244 16.2254 53.3873C17.1638 52.6032 21.6888 47.6796 19.8506 27.3171L13.6801 25.8645C12.6003 27.3043 9.86213 31.1608 7.40681 36.4957C4.56583 42.6404 1.50631 52.089 2.92037 62.3602Z" fill="#07CEB9"/>
<path d="M21.0603 27.5485C20.9574 27.5485 20.8674 27.5357 20.7646 27.51L12.8844 25.6588C12.653 25.6074 12.4345 25.4917 12.2674 25.3117C12.1388 25.1832 9.01501 22.008 9.82488 17.5729C9.8763 17.3158 9.91487 17.0587 9.96629 16.8145C10.5962 13.2793 11.1875 9.93699 14.5299 9.02428C18.515 7.93159 26.3052 9.91128 28.8248 13.4593C30.0332 15.1562 30.3417 18.7428 28.9276 20.6582C28.0406 21.8537 26.6394 22.2522 25.0582 21.7637C24.9168 22.0722 24.7497 22.6893 24.6469 23.1264C24.2483 24.7075 23.6442 27.0857 21.3045 27.5357C21.2145 27.5485 21.1374 27.5485 21.0603 27.5485ZM13.8742 23.2549L21.0088 24.9389C21.5488 24.669 21.8187 23.7306 22.1401 22.4836C22.4486 21.2495 22.7829 19.9769 23.837 19.3984C24.2226 19.1798 24.8782 18.987 25.7524 19.2827C26.5366 19.5398 26.7294 19.2827 26.8579 19.1284C27.5264 18.2286 27.3464 15.8246 26.7294 14.9505C24.904 12.3923 18.2064 10.6826 15.2112 11.5053C13.5143 11.9681 13.1158 13.8064 12.4988 17.2773C12.4602 17.5215 12.4088 17.7786 12.3573 18.0357C11.9074 20.5425 13.3086 22.5607 13.8742 23.2549Z" fill="#07CEB9"/>
<path d="M25.7622 19.2813L17.8806 16.5448L17.0373 18.9737L24.9189 21.7101L25.7622 19.2813Z" fill="#07CEB9"/>
<path d="M53.9293 84.5353L34.9168 65.5354C30.4689 61.0875 30.1859 53.8501 34.2738 49.068C34.4667 48.8366 34.6852 48.6052 34.9166 48.3738C37.2048 46.0856 40.2515 44.8387 43.4909 44.8387C46.7433 44.8387 49.79 46.0985 52.0653 48.3738L53.9165 50.225L55.7676 48.3738C58.0558 46.0856 61.1025 44.8387 64.342 44.8387C67.5943 44.8387 70.641 46.0985 72.9163 48.3738C73.1477 48.6052 73.3534 48.8366 73.5591 49.068C77.647 53.8501 77.3642 61.0747 72.9163 65.5354L53.9293 84.5353ZM43.5038 47.4097C40.9456 47.4097 38.5417 48.3995 36.742 50.1993C36.562 50.3792 36.3949 50.5592 36.2407 50.7392C33.014 54.5057 33.2326 60.2134 36.742 63.7228L53.9293 80.9101L71.1166 63.7228C74.6261 60.2134 74.8446 54.5186 71.618 50.752C71.4637 50.5721 71.2966 50.3792 71.1166 50.1993C69.3169 48.3995 66.913 47.4097 64.3548 47.4097C61.7966 47.4097 59.3927 48.3995 57.593 50.1993L53.9293 53.863L50.2656 50.1993C48.4659 48.3995 46.062 47.4097 43.5038 47.4097Z" fill="#07CEB9"/>
<path d="M57.6836 30.1967H50.1891C49.3663 30.1967 48.685 29.5282 48.685 28.6926V20.3497H40.3421C39.5193 20.3497 38.838 19.6812 38.838 18.8456V11.3511C38.838 10.5283 39.5065 9.84702 40.3421 9.84702H48.685V1.50405C48.685 0.681321 49.3535 0 50.1891 0H57.6836C58.5063 0 59.1877 0.668466 59.1877 1.50405V9.84702H67.5306C68.3533 9.84702 69.0347 10.5155 69.0347 11.3511V18.8456C69.0347 19.6683 68.3662 20.3497 67.5306 20.3497H59.1877V28.6926C59.1748 29.5282 58.5063 30.1967 57.6836 30.1967ZM51.2432 27.6257H56.6038V17.7786H66.4508V12.418H56.6038V2.57102H51.2432V12.418H41.3962V17.7786H51.2432V27.6257Z" fill="#07CEB9"/>
<path d="M71.6194 88.8708L66.2928 83.5442L64.4748 85.3622L69.8015 90.6888L71.6194 88.8708Z" fill="#07CEB9"/>
<path d="M43.3884 85.3661L41.5704 83.5481L36.2437 88.8747L38.0617 90.6927L43.3884 85.3661Z" fill="#07CEB9"/>
<path d="M55.2173 93.3282H52.6463V100H55.2173V93.3282Z" fill="#07CEB9"/>
</svg>
