<svg width="100" height="100" viewBox="0 0 100 100" fill="none" xmlns="http://www.w3.org/2000/svg">
<path d="M60.6452 18.1452H39.3548V39.2742H18.1452V60.6452H39.2742V81.7742H60.6452V60.6452H81.7742V39.3548H60.6452V18.1452ZM78.629 57.5H57.4194V78.629H42.5806V57.4194H21.371V42.5806H42.5V21.371H57.4194V42.5H78.629V57.5Z" fill="#07CEB9"/>
<path d="M50 0C22.4194 0 0 22.4194 0 50C0 77.5806 22.4194 100 50 100C77.5806 100 100 77.5806 100 50C100 22.4194 77.5806 0 50 0ZM50 96.7742C24.1935 96.7742 3.22581 75.8064 3.22581 50C3.22581 24.1935 24.1935 3.22581 50 3.22581C75.8064 3.22581 96.7742 24.1935 96.7742 50C96.7742 75.8064 75.8064 96.7742 50 96.7742Z" fill="#07CEB9"/>
</svg>
